<svg width="114" height="80" viewBox="0 0 114 80" fill="none" xmlns="http://www.w3.org/2000/svg">
<g clip-path="url(#clip0)">
<path d="M43.9437 30.0358C43.9437 30.0117 43.9437 29.99 43.9413 29.9659C43.9389 29.9442 43.9341 29.9201 43.9292 29.8984C43.9269 29.8839 43.9268 29.8719 43.922 29.8574L39.0824 13.2708C39.0824 13.2684 39.08 13.266 39.08 13.2611C39.0728 13.2346 39.0607 13.2105 39.0511 13.184C39.0487 13.1792 39.0463 13.172 39.0439 13.1671C39.0294 13.1382 39.0101 13.1093 38.9909 13.0828C38.986 13.0756 38.9788 13.0683 38.974 13.0635C38.9595 13.0442 38.9427 13.0274 38.9258 13.0105C38.9185 13.0033 38.9089 12.996 38.9017 12.9888C38.8848 12.9743 38.8679 12.9599 38.8487 12.9478C38.839 12.9406 38.8294 12.9358 38.8197 12.9309C38.8005 12.9189 38.7836 12.9093 38.7619 12.902C38.7498 12.8972 38.7378 12.8924 38.7257 12.8876C38.7161 12.8827 38.7065 12.8779 38.6968 12.8755C38.6871 12.8731 38.6775 12.8707 38.6679 12.8683C38.6559 12.8659 38.6438 12.8611 38.6293 12.8586C38.6077 12.8538 38.586 12.8514 38.5643 12.849C38.5522 12.849 38.5425 12.8466 38.5305 12.8466C38.504 12.8466 38.4799 12.8466 38.4534 12.8514C38.4461 12.8514 38.4414 12.8514 38.4341 12.8514C38.4317 12.8514 38.4317 12.8514 38.4293 12.8538C38.3618 12.8635 38.2967 12.8852 38.2389 12.9165C38.2292 12.9213 38.222 12.9261 38.2148 12.9309C38.1955 12.943 38.1762 12.955 38.1569 12.9695C38.1473 12.9767 38.1377 12.9864 38.128 12.9936C38.1135 13.0081 38.0991 13.0201 38.0846 13.0346C38.075 13.0442 38.0653 13.0563 38.0581 13.0683C38.0509 13.0756 38.0437 13.0852 38.0364 13.0924L26.4725 29.4308H17.5598L5.99593 13.0924C5.9887 13.0828 5.98146 13.0756 5.97664 13.0683C5.967 13.0563 5.95978 13.0466 5.95014 13.0346C5.93568 13.0201 5.92362 13.0057 5.90675 12.9936C5.89711 12.984 5.88747 12.9767 5.87783 12.9671C5.86096 12.9526 5.84168 12.943 5.82481 12.9309C5.81517 12.9261 5.80552 12.9189 5.79588 12.9117C5.76937 12.8972 5.74045 12.8852 5.71153 12.8731C5.70912 12.8731 5.70671 12.8707 5.70671 12.8707C5.67537 12.8611 5.64163 12.8514 5.60789 12.8466C5.60548 12.8466 5.60307 12.8442 5.60066 12.8442C5.59343 12.8442 5.58379 12.8442 5.57656 12.8442C5.55246 12.8418 5.52836 12.8394 5.50667 12.8418C5.49461 12.8418 5.48257 12.8442 5.47052 12.8442C5.44883 12.8466 5.42713 12.849 5.40544 12.8538C5.39339 12.8562 5.38134 12.8586 5.36929 12.8611C5.35965 12.8635 5.3476 12.8659 5.33796 12.8683C5.32832 12.8707 5.31867 12.8779 5.30662 12.8803C5.29698 12.8852 5.28493 12.8876 5.27529 12.8924C5.2536 12.902 5.23432 12.9117 5.21504 12.9237C5.2054 12.9285 5.19816 12.9334 5.18852 12.9406C5.16924 12.9551 5.14996 12.9695 5.13309 12.984C5.12586 12.9912 5.11863 12.996 5.1114 13.0033C5.09212 13.0201 5.07525 13.0394 5.06079 13.0587C5.05597 13.0659 5.05115 13.0707 5.04633 13.0756C5.02705 13.1021 5.00776 13.131 4.9933 13.1599C4.99089 13.1647 4.98848 13.172 4.98607 13.1768C4.97402 13.2009 4.96438 13.2274 4.95474 13.2539C4.95474 13.2563 4.95233 13.2587 4.95233 13.2635L0.112755 29.8502C0.107935 29.8647 0.107935 29.8767 0.105524 29.8912C0.100704 29.9129 0.0958871 29.9345 0.093477 29.9586C0.0910663 29.9828 0.0910645 30.0044 0.0910645 30.0285C0.0910645 30.0502 0.0934715 30.0719 0.0958822 30.0936C0.0982923 30.1177 0.105522 30.1418 0.110342 30.1659C0.115162 30.1804 0.115164 30.1948 0.119985 30.2069L4.95956 44.2918C4.95956 44.2942 4.98366 44.3497 4.99089 44.3641C4.99089 44.3665 4.9933 44.3689 4.99571 44.3713C5.00294 44.3834 5.01982 44.4147 5.02223 44.4196L9.64973 51.6114C9.65209 51.6162 9.65934 51.6211 9.66175 51.6259C9.669 51.6355 9.67142 51.6452 9.6786 51.6524L21.551 67.0002C21.5534 67.0051 21.5583 67.0074 21.563 67.0122C21.5847 67.0388 21.6089 67.0629 21.6354 67.0845C21.6426 67.0894 21.6474 67.0966 21.6547 67.1015C21.686 67.1256 21.7173 67.1472 21.7535 67.1641C21.7607 67.1689 21.7703 67.1713 21.7776 67.1738C21.7944 67.181 21.8089 67.1882 21.8258 67.1954C21.8378 67.2003 21.8523 67.2026 21.8643 67.2051C21.8764 67.2075 21.886 67.2123 21.8981 67.2123C21.9366 67.2195 21.9776 67.2267 22.0162 67.2267C22.0547 67.2267 22.0957 67.222 22.1343 67.2123C22.1464 67.2099 22.156 67.2075 22.168 67.2051C22.1801 67.2026 22.1946 67.2003 22.2066 67.1954C22.2234 67.1906 22.2403 67.181 22.2572 67.1738C22.2644 67.1713 22.2741 67.1665 22.2813 67.1641C22.3174 67.1472 22.3488 67.1256 22.3801 67.1015C22.3873 67.0966 22.3921 67.0894 22.3994 67.0845C22.4259 67.0629 22.45 67.0388 22.4717 67.0122C22.4765 67.0074 22.4814 67.0051 22.4837 67.0002L34.3561 51.6524C34.3634 51.6428 34.3682 51.6331 34.373 51.6259C34.3778 51.6211 34.3827 51.6162 34.3851 51.6114L39.0125 44.4196C39.015 44.4147 39.0342 44.3834 39.0391 44.3713C39.0415 44.3689 39.0415 44.3665 39.0439 44.3641C39.0511 44.3497 39.0728 44.2942 39.0752 44.2918L43.9148 30.2069C43.9196 30.1924 43.9196 30.1804 43.9245 30.1659C43.9316 30.1418 43.9365 30.1177 43.9389 30.0936C43.9437 30.0792 43.9437 30.0575 43.9437 30.0358ZM7.51434 42.6336L10.903 38.5653L17.2007 31.0071L21.1292 36.9312L9.57985 41.766L7.51434 42.6336ZM22.9031 36.9336L26.8316 31.0095L33.1294 38.5677L36.518 42.636L34.4501 41.7708L22.9031 36.9336ZM37.928 42.4794L28.0368 30.6118H37.928V42.4794ZM22.0186 36.1334L18.3552 30.6118H25.6796L22.0186 36.1334ZM6.10679 42.4794V30.6118H15.998L6.10679 42.4794ZM19.9965 38.6858L10.2089 50.3075L6.39361 44.3785L19.9965 38.6858ZM33.8259 50.3075L24.0383 38.6858L37.6412 44.3785L33.8259 50.3075ZM42.5723 29.4333H39.1089V17.5632L42.5723 29.4333ZM37.928 15.2905V29.4333H27.9187L37.928 15.2905ZM6.10679 29.4333V15.2905L16.1161 29.4333H6.10679ZM4.92823 17.5608V29.4308H1.46484L4.92823 17.5608ZM4.92823 30.6118V40.5753L1.50582 30.6118H4.92823ZM21.4281 38.816V64.9203L10.903 51.3125L21.4281 38.816ZM22.6091 64.9227V38.816L33.1342 51.3149L22.6091 64.9227ZM39.1089 40.5777V30.6142H42.5314L39.1089 40.5777Z" fill="white"/>
<path d="M60.1405 25.6406H58.6076C58.3545 25.6406 58.2292 25.5153 58.2292 25.2623V14.4262C58.2292 14.1732 58.3545 14.0478 58.6076 14.0478H60.1405C60.3935 14.0478 60.5188 14.1732 60.5188 14.4262V19.5647H60.555C60.6514 19.2755 60.837 18.9043 61.1142 18.4464L63.8543 14.4262C64.011 14.1732 64.2452 14.0478 64.5581 14.0478H66.3251C66.4577 14.0478 66.537 14.0864 66.5686 14.1635C66.5971 14.2431 66.5661 14.3419 66.4694 14.46L63.0445 19.2007L66.8672 25.1851C66.9515 25.3297 66.9657 25.4406 66.913 25.5177C66.8598 25.5973 66.7464 25.6358 66.5803 25.6358H65.2644C64.8425 25.6358 64.5606 25.5105 64.4162 25.2574L61.6588 20.8396L60.5237 22.1748V25.2574C60.5188 25.5153 60.3935 25.6406 60.1405 25.6406Z" fill="white"/>
<path d="M75.7306 25.5951H73.9736C73.7561 25.5951 73.6817 25.4709 73.7561 25.2167L76.6464 14.3566C76.7319 14.1025 76.9153 13.9783 77.1953 13.9783H79.6333C79.9369 13.9783 80.1196 14.1025 80.1828 14.3566L83.0731 25.2167C83.1475 25.4709 83.0731 25.5951 82.8556 25.5951H81.0986C80.9666 25.5951 80.8755 25.5669 80.8241 25.516C80.772 25.4595 80.738 25.3636 80.715 25.2167L80.2002 23.2288H76.629L76.1142 25.2167C76.0912 25.3636 76.051 25.4595 75.994 25.516C75.9425 25.5669 75.8508 25.5951 75.7306 25.5951ZM78.3861 16.1638L77.0695 21.3878H79.7764L78.4604 16.1638H78.3861Z" fill="white"/>
<path d="M90.8698 22.6858V22.3243C90.8698 22.0713 90.995 21.9459 91.2484 21.9459H92.7812C93.034 21.9459 93.1597 22.0713 93.1597 22.3243V22.4689C93.1597 22.9268 93.249 23.2378 93.4293 23.4065C93.6102 23.5752 93.9404 23.6595 94.4199 23.6595H95.2687C95.7359 23.6595 96.0636 23.5704 96.252 23.3896C96.4372 23.2089 96.5314 22.8714 96.5314 22.3798V22.1628C96.5314 21.8133 96.3889 21.5458 96.107 21.3603C95.8251 21.1747 95.4732 21.0638 95.0513 21.0277C94.63 20.9915 94.1764 20.924 93.6901 20.8204C93.2031 20.7191 92.7496 20.5866 92.3283 20.4227C91.9064 20.2612 91.5544 19.9431 91.2725 19.4683C90.9906 18.9935 90.8481 18.3837 90.8481 17.639V17.0075C90.8481 16.07 91.1133 15.3421 91.6412 14.8263C92.1691 14.3106 92.9039 14.0527 93.8419 14.0527H95.6442C96.594 14.0527 97.3337 14.3106 97.8616 14.8263C98.3895 15.3445 98.6547 16.07 98.6547 17.0075V17.3498C98.6547 17.6028 98.5295 17.7282 98.2761 17.7282H96.7433C96.4905 17.7282 96.3654 17.6028 96.3654 17.3498V17.2413C96.3654 16.7737 96.2762 16.4532 96.0952 16.2869C95.9143 16.1182 95.5841 16.0338 95.1046 16.0338H94.4007C93.9094 16.0338 93.5742 16.1278 93.4008 16.3134C93.2273 16.499 93.1405 16.8629 93.1405 17.4028V17.745C93.1405 18.309 93.6319 18.6344 94.6176 18.7187C95.6399 18.8031 96.5457 19.008 97.3412 19.3309C97.7606 19.5117 98.1125 19.8322 98.3969 20.295C98.6788 20.7577 98.8207 21.3506 98.8207 22.0713V22.6834C98.8207 23.621 98.5561 24.3489 98.0283 24.8646C97.5004 25.3828 96.765 25.6406 95.8276 25.6406H93.8636C92.9255 25.6406 92.1932 25.3828 91.6629 24.8646C91.135 24.3489 90.8698 23.621 90.8698 22.6858Z" fill="white"/>
<path d="M110.934 25.6406H109.421C109.156 25.6406 109.023 25.5153 109.023 25.2623V16.229C109.023 16.0965 108.958 16.0314 108.825 16.0314H106.77C106.516 16.0314 106.391 15.9061 106.391 15.653V14.4262C106.391 14.1732 106.516 14.0478 106.77 14.0478H113.583C113.836 14.0478 113.962 14.1732 113.962 14.4262V15.653C113.962 15.9061 113.836 16.0314 113.583 16.0314H111.527C111.382 16.0314 111.31 16.0965 111.31 16.229V25.2623C111.313 25.5153 111.187 25.6406 110.934 25.6406Z" fill="white"/>
<path d="M99.5778 57.6157H99.763L105.543 34.2661C105.606 33.895 105.707 33.6371 105.847 33.4973C105.986 33.3575 106.213 33.2876 106.524 33.2876H110.997C111.556 33.2876 111.742 33.6154 111.556 34.2661L104.193 62.2769C103.976 62.93 103.508 63.2554 102.795 63.2554H96.5964C95.8201 63.2554 95.3548 62.93 95.1987 62.2769L87.8352 34.2661C87.6499 33.613 87.8352 33.2876 88.3946 33.2876H92.8679C93.2099 33.2876 93.4441 33.3575 93.5668 33.4973C93.6919 33.6371 93.7836 33.895 93.8462 34.2661L99.5778 57.6157Z" fill="white"/>
<path d="M69.9736 63.2554H66.0598C65.3777 63.2554 65.0357 62.9276 65.0357 62.2769V38.9274C65.0357 38.5851 64.8641 38.414 64.5221 38.414H59.21C58.5569 38.414 58.2316 38.0862 58.2316 37.4355V34.2661C58.2316 33.613 58.5569 33.2876 59.21 33.2876H76.826C77.479 33.2876 77.8043 33.613 77.8043 34.2661V37.4355C77.8043 38.0887 77.479 38.414 76.826 38.414H71.5139C71.1403 38.414 70.955 38.5851 70.955 38.9274V62.2769C70.9525 62.9276 70.6267 63.2554 69.9736 63.2554Z" fill="white"/>
</g>
<defs>
<clipPath id="clip0">
<rect width="114" height="54.5217" fill="white" transform="translate(0 12.7393)"/>
</clipPath>
</defs>
</svg>
